<svg xmlns="http://www.w3.org/2000/svg" width="23.858" height="18.97" viewBox="0 0 23.858 18.97">
  <g id="그룹_24" data-name="그룹 24" transform="translate(-0.797 -0.388)">
    <path id="패스_48" data-name="패스 48" d="M21.073,3.97a.932.932,0,0,0-1.184-.111c-1.395.951-8.39,5.731-9.141,6.482A2.8,2.8,0,0,0,14.7,14.3c.752-.752,5.532-7.747,6.482-9.141A.932.932,0,0,0,21.073,3.97Zm-7.689,9.007a.932.932,0,0,1-1.318-1.318c.292-.289,2.278-1.705,4.722-3.4C15.088,10.7,13.672,12.685,13.384,12.977Z" fill="#2f75f1"/>
    <path id="패스_49" data-name="패스 49" d="M5.1,16.656l-1.151.561a10.021,10.021,0,0,1-.628-8.471l1.319.632A.932.932,0,1,0,5.442,7.7l-1.3-.624A10.081,10.081,0,0,1,11.8,2.295V3.7a.932.932,0,1,0,1.864,0v-1.4a9.952,9.952,0,0,1,3.205.844.932.932,0,1,0,.767-1.7,11.922,11.922,0,0,0-14.815,17.5A.932.932,0,0,0,4,19.263l1.911-.932A.932.932,0,0,0,5.1,16.656Z" fill="#2f75f1"/>
    <path id="패스_50" data-name="패스 50" d="M23.6,7.416a.932.932,0,0,0-1.7.767,10.033,10.033,0,0,1-.4,9.04l-1.2-.572a.932.932,0,0,0-.8,1.683l1.957.932a.932.932,0,0,0,1.176-.323A11.9,11.9,0,0,0,23.6,7.416Z" fill="#2f75f1"/>
  </g>
</svg>
