<svg xmlns="http://www.w3.org/2000/svg" width="20.877" height="20.878" viewBox="0 0 20.877 20.878">
  <g id="그룹_27" data-name="그룹 27" transform="translate(-0.773 -0.386)">
    <path id="패스_51" data-name="패스 51" d="M9.724.386A4.474,4.474,0,1,0,14.2,4.86,4.485,4.485,0,0,0,9.724.386Z" fill="#556372"/>
    <path id="패스_52" data-name="패스 52" d="M7.484,10.825A6.713,6.713,0,0,0,.773,17.536v1.491a.746.746,0,0,0,.746.746h9.343a6.676,6.676,0,0,1,1.353-8.935c-.086,0-.17-.013-.256-.013Z" fill="#556372"/>
    <path id="패스_53" data-name="패스 53" d="M16.42,10.825a.747.747,0,0,0-.738.756v.811a3.711,3.711,0,0,0-1.308.549l-.572-.572a.722.722,0,0,0-.563-.239.753.753,0,0,0-.491,1.293l.575.575a3.71,3.71,0,0,0-.546,1.308h-.81a.746.746,0,1,0,0,1.491h.813a3.71,3.71,0,0,0,.545,1.3l-.58.58A.746.746,0,1,0,13.8,19.728l.578-.578a3.709,3.709,0,0,0,1.3.548v.811a.746.746,0,1,0,1.491,0V19.7a3.711,3.711,0,0,0,1.3-.546l.583.583a.746.746,0,1,0,1.055-1.054l-.58-.58a3.712,3.712,0,0,0,.547-1.3h.813a.746.746,0,1,0,0-1.491h-.81a3.709,3.709,0,0,0-.549-1.315l.575-.575a.745.745,0,1,0-1.051-1.054l-.577.577a3.709,3.709,0,0,0-1.306-.548v-.81a.744.744,0,0,0-.753-.756Zm.01,2.983a2.237,2.237,0,1,1-2.237,2.237A2.226,2.226,0,0,1,16.431,13.808Z" fill="#556372"/>
  </g>
</svg>
