<svg xmlns="http://www.w3.org/2000/svg" width="23.861" height="22.37" viewBox="0 0 23.861 22.37">
  <g id="그룹_33" data-name="그룹 33" transform="translate(-0.797 -0.447)">
    <path id="패스_63" data-name="패스 63" d="M11.15,16.851H7.974a.771.771,0,0,0-.794.746v4.474a.771.771,0,0,0,.794.746H11.15a.771.771,0,0,0,.794-.746V17.6A.771.771,0,0,0,11.15,16.851Z" fill="#556372"/>
    <path id="패스_64" data-name="패스 64" d="M4.8,14.614H1.622a.771.771,0,0,0-.794.746v6.711a.771.771,0,0,0,.794.746H4.8a.771.771,0,0,0,.794-.746V15.36A.771.771,0,0,0,4.8,14.614Z" fill="#556372"/>
    <path id="패스_65" data-name="패스 65" d="M17.51,11.632H14.333a.771.771,0,0,0-.794.746v9.693a.771.771,0,0,0,.794.746H17.51a.771.771,0,0,0,.794-.746V12.377A.771.771,0,0,0,17.51,11.632Z" fill="#556372"/>
    <path id="패스_66" data-name="패스 66" d="M23.861,6.412H20.685a.771.771,0,0,0-.794.746V22.071a.771.771,0,0,0,.794.746h3.176a.771.771,0,0,0,.794-.746V7.158A.771.771,0,0,0,23.861,6.412Z" fill="#556372"/>
    <path id="패스_67" data-name="패스 67" d="M22.275.447a2.463,2.463,0,0,0-1.685.655,2.17,2.17,0,0,0-.7,1.582,2.074,2.074,0,0,0,.059.483L17.4,4.669a2.473,2.473,0,0,0-3.159.162,2.17,2.17,0,0,0-.7,1.582,2.1,2.1,0,0,0,.306,1.074l-3.382,3.567a2.494,2.494,0,0,0-1.409-.114,2.39,2.39,0,0,0-1.224.665l-2.246-.582c0-.046.014-.089.014-.136a2.171,2.171,0,0,0-.541-1.444,2.434,2.434,0,0,0-1.4-.787,2.538,2.538,0,0,0-1.611.233A2.308,2.308,0,0,0,.967,10.034a2.126,2.126,0,0,0-.053,1.53,2.281,2.281,0,0,0,1,1.209,2.528,2.528,0,0,0,1.592.331,2.458,2.458,0,0,0,1.45-.7l2.246.582c0,.046-.014.089-.014.136a2.17,2.17,0,0,0,.7,1.582,2.493,2.493,0,0,0,3.369,0,2.17,2.17,0,0,0,.7-1.582,2.1,2.1,0,0,0-.306-1.074l3.382-3.567a2.493,2.493,0,0,0,.894.167,2.463,2.463,0,0,0,1.685-.655,2.17,2.17,0,0,0,.7-1.582,2.074,2.074,0,0,0-.06-.483l2.555-1.5a2.473,2.473,0,0,0,3.159-.162,2.142,2.142,0,0,0,0-3.164A2.463,2.463,0,0,0,22.275.447Z" fill="#556372"/>
  </g>
</svg>
