<svg xmlns="http://www.w3.org/2000/svg" width="23.86" height="23.861" viewBox="0 0 23.86 23.861">
  <g id="그룹_28" data-name="그룹 28" transform="translate(-0.797 -0.895)">
    <path id="패스_56" data-name="패스 56" d="M23.773.9H12.727v11.93h11.93V1.779A.886.886,0,0,0,23.773.9ZM13.959,9.812l3.027-5.241a.44.44,0,0,1,.764,0l3.027,5.241H13.959Zm7.834,0L19.518,5.87l.566-.906a.442.442,0,0,1,.751,0l3.031,4.847Z" fill="#2f75f1"/>
    <path id="패스_57" data-name="패스 57" d="M5.273,17.3l2.983-.732v-.759l-2.983.732Z" fill="#2f75f1"/>
    <path id="패스_58" data-name="패스 58" d="M.8,12.825V23.872a.886.886,0,0,0,.884.884H12.727V12.825Zm7.825,9.005a1.387,1.387,0,1,1,.508-2.678V17l-3.283.6V21.2a1.4,1.4,0,1,1-.884-1.295V15.87a.634.634,0,0,1,.517-.623l3.787-.689a.63.63,0,0,1,.742.623v5.263a1.391,1.391,0,0,1-1.392,1.388Z" fill="#2f75f1"/>
    <path id="패스_59" data-name="패스 59" d="M1.681.9A.886.886,0,0,0,.8,1.779V12.825h11.93V.9ZM8.755,7.837,6.082,9.379a.872.872,0,0,1-1.308-.756V5.539a.872.872,0,0,1,1.308-.756L8.755,6.326A.871.871,0,0,1,8.755,7.837Z" fill="#2f75f1"/>
    <path id="패스_60" data-name="패스 60" d="M12.727,12.825v11.93H23.773a.886.886,0,0,0,.884-.884V12.825Zm4.86,2.209h2.651a2.207,2.207,0,0,1,2.174,1.816,1.732,1.732,0,0,0-.406-.049H15.82a1.733,1.733,0,0,0-.406.049A2.207,2.207,0,0,1,17.587,15.035Zm2.651,7.07H17.587a2.207,2.207,0,0,1-2.174-1.816,1.738,1.738,0,0,0,.406.049h6.186a1.737,1.737,0,0,0,.406-.049A2.207,2.207,0,0,1,20.238,22.1Zm1.767-2.651H15.82a.884.884,0,0,1,0-1.767h6.186a.884.884,0,0,1,0,1.767Z" fill="#2f75f1"/>
  </g>
</svg>
